<?xml version="1.0" encoding="UTF-8" standalone="no"?>
<!-- Uploaded to: SVG Repo, www.svgrepo.com, Generator: SVG Repo Mixer Tools -->

<svg
   width="800px"
   height="800px"
   viewBox="0 0 24 24"
   fill="none"
   version="1.1"
   id="svg1"
   sodipodi:docname="menu-svgrepo-com-light.svg"
   inkscape:version="1.3.2 (091e20e, 2023-11-25, custom)"
   xmlns:inkscape="http://www.inkscape.org/namespaces/inkscape"
   xmlns:sodipodi="http://sodipodi.sourceforge.net/DTD/sodipodi-0.dtd"
   xmlns="http://www.w3.org/2000/svg"
   xmlns:svg="http://www.w3.org/2000/svg">
  <defs
     id="defs1" />
  <sodipodi:namedview
     id="namedview1"
     pagecolor="#ffffff"
     bordercolor="#000000"
     borderopacity="0.25"
     inkscape:showpageshadow="2"
     inkscape:pageopacity="0.0"
     inkscape:pagecheckerboard="0"
     inkscape:deskcolor="#d1d1d1"
     inkscape:zoom="1.02625"
     inkscape:cx="400"
     inkscape:cy="400"
     inkscape:window-width="1920"
     inkscape:window-height="1017"
     inkscape:window-x="-8"
     inkscape:window-y="-8"
     inkscape:window-maximized="1"
     inkscape:current-layer="svg1" />
  <path
     d="M4 6H20M4 12H20M4 18H20"
     stroke="#000000"
     stroke-width="2"
     stroke-linecap="round"
     stroke-linejoin="round"
     id="path1"
     style="fill:#f2f9fe;fill-opacity:1" />
  <path
     style="fill:#f2f9fe;fill-opacity:1;stroke:#f2f9fe;stroke-width:0.200731"
     d="m 125.21315,431.57753 c -5.99959,-1.59472 -14.1635,-6.75669 -17.21614,-10.8856 -5.49912,-7.43796 -6.6518,-11.02362 -6.6518,-20.69193 0,-7.87929 0.34508,-9.90516 2.31859,-13.612 3.62446,-6.80783 5.96593,-9.54386 11.26894,-13.1679 10.02239,-6.84924 -12.36882,-6.35043 285.06726,-6.35043 297.43607,0 275.04487,-0.49881 285.06726,6.35043 5.30301,3.62404 7.64448,6.36007 11.26893,13.1679 1.97352,3.70684 2.31859,5.73271 2.31859,13.612 0,7.87929 -0.34507,9.90516 -2.31859,13.612 -3.62445,6.80783 -5.96592,9.54386 -11.26893,13.1679 -10.02671,6.85219 12.44888,6.35734 -285.51559,6.2863 -232.74406,-0.0555 -269.70117,-0.25603 -274.33852,-1.48867 z"
     id="path2"
     transform="scale(0.03)" />
  <path
     style="fill:#f2f9fe;fill-opacity:1;stroke:#f2f9fe;stroke-width:0.200731"
     d="m 124.23873,231.49179 c -8.16074,-2.50305 -16.39707,-9.54512 -20.5921,-17.60628 -1.92131,-3.69198 -2.28387,-5.84773 -2.29435,-13.6419 -0.0103,-7.65426 0.36795,-10.02895 2.18464,-13.71554 3.57065,-7.24588 8.51992,-12.23107 15.60651,-15.71979 l 6.51596,-3.20779 H 400 674.34061 l 6.51596,3.20779 c 7.08659,3.48872 12.03585,8.47391 15.6065,15.71979 1.81732,3.68784 2.19461,6.05867 2.18267,13.71554 -0.0127,8.12388 -0.33062,9.85338 -2.59762,14.12911 -3.10583,5.85783 -9.43284,12.11526 -15.41475,15.24523 l -4.38489,2.29435 -274.78685,0.16333 c -151.13276,0.0898 -275.88307,-0.17289 -277.2229,-0.58384 z"
     id="path3"
     transform="scale(0.03)" />
  <path
     style="fill:#f2f9fe;fill-opacity:1;stroke:#f2f9fe;stroke-width:0.601;stroke-dasharray:none"
     d="m 123.57056,631.08058 c -15.1353,-5.2407 -23.44661,-17.48024 -22.5104,-33.14964 0.70622,-11.8201 7.03405,-21.49535 17.81926,-27.24562 l 4.8721,-2.59762 H 400 676.24848 l 4.8721,2.59762 c 5.87548,3.13259 12.13097,9.46872 15.23279,15.42917 1.92131,3.69198 2.28387,5.84773 2.29435,13.6419 0.0103,7.65426 -0.36795,10.02895 -2.18465,13.71554 -3.57061,7.24581 -8.51992,12.23107 -15.60642,15.71979 l -6.51586,3.20779 -272.85858,0.21537 c -260.29473,0.20545 -273.09125,0.1348 -277.91165,-1.5343 z"
     id="path4"
     transform="scale(0.03)" />
  <path
     style="fill:#f2f9fe;fill-opacity:1;stroke:#f2f9fe;stroke-width:0;stroke-dasharray:none"
     d="m 120.34105,229.26935 c -5.12538,-2.51798 -13.61534,-10.64399 -16.13575,-15.44402 -2.60037,-4.95233 -3.13917,-19.10353 -0.94601,-24.84624 2.80244,-7.3381 8.27503,-13.29759 15.88179,-17.29483 l 6.84427,-3.59656 H 400 674.01465 l 6.77897,3.56224 c 7.323,3.84813 12.14002,8.85611 15.37274,15.98217 2.66507,5.87478 2.75502,19.17712 0.16763,24.79176 -2.58574,5.61107 -9.33387,12.81626 -15.10144,16.12429 l -4.98407,2.85864 -275.76127,0.008 -275.76127,0.008 z"
     id="path5"
     transform="scale(0.03)" />
  <path
     style="fill:#f2f9fe;fill-opacity:1;stroke:#f2f9fe;stroke-width:0;stroke-dasharray:none"
     d="m 126.67479,630.99672 c -8.5925,-1.48065 -16.95395,-7.63851 -21.4895,-15.8261 -2.64173,-4.76885 -2.87098,-5.96107 -2.87029,-14.92701 6.7e-4,-8.66845 0.28688,-10.28642 2.59245,-14.65545 2.9659,-5.62031 9.52595,-12.05055 15.29791,-14.99518 l 3.95574,-2.01807 H 400 675.83891 l 4.02903,2.05546 c 5.42448,2.76736 14.04166,11.54448 16.36953,16.67335 1.39545,3.07453 1.89832,6.36919 1.91409,12.54064 0.019,7.42046 -0.31876,9.05127 -2.97545,14.36778 -3.28842,6.58071 -8.10043,11.0762 -16.21558,15.14898 l -5.08332,2.55118 -271.65237,-0.12196 c -149.4088,-0.0671 -273.40633,-0.42421 -275.55005,-0.79362 z"
     id="path6"
     transform="scale(0.03)" />
  <path
     style="fill:#f2f9fe;fill-opacity:1;stroke:#f2f9fe;stroke-width:0;stroke-dasharray:none"
     d="m 262.36297,567.84412 c 75.70037,-0.13769 199.57369,-0.13769 275.27406,0 75.70036,0.13769 13.7637,0.25035 -137.63703,0.25035 -151.40073,0 -213.33739,-0.11266 -137.63703,-0.25035 z"
     id="path7"
     transform="scale(0.03)" />
  <path
     style="fill:#f2f9fe;fill-opacity:1;stroke:#f2f9fe;stroke-width:0;stroke-dasharray:none"
     d="m 126.67479,630.99672 c -8.5925,-1.48065 -16.95395,-7.63851 -21.4895,-15.8261 -2.64173,-4.76885 -2.87098,-5.96107 -2.87029,-14.92701 6.7e-4,-8.66845 0.28688,-10.28642 2.59245,-14.65545 2.9659,-5.62031 9.52595,-12.05055 15.29791,-14.99518 l 3.95574,-2.01807 276.04368,0.009 276.0437,0.009 4.89201,2.80607 c 5.94675,3.41107 12.63019,10.47227 15.1359,15.99142 1.35337,2.98094 1.85954,6.34264 1.87517,12.45367 0.0189,7.4035 -0.3216,9.05695 -2.9475,14.31184 -3.451,6.90607 -7.50851,10.77598 -15.5595,14.8401 l -5.77656,2.916 -271.64776,-0.12196 c -149.40628,-0.0671 -273.40173,-0.42421 -275.54545,-0.79362 z"
     id="path8"
     transform="scale(0.03)" />
  <path
     style="fill:#f2f9fe;fill-opacity:1;stroke:#f2f9fe;stroke-width:0.8;stroke-dasharray:none"
     d="m 126.67479,631.00408 c -8.6826,-1.4798 -16.88011,-7.51082 -21.46831,-15.79453 -2.66597,-4.81324 -2.89217,-5.984 -2.89148,-14.96594 6.7e-4,-8.66845 0.28688,-10.28642 2.59245,-14.65545 2.9659,-5.62031 9.52595,-12.05055 15.29791,-14.99518 l 3.95574,-2.01807 276.04368,0.009 276.0437,0.009 4.89201,2.80607 c 5.94675,3.41107 12.63019,10.47227 15.1359,15.99142 1.35337,2.98094 1.85954,6.34264 1.87517,12.45367 0.0189,7.4035 -0.3216,9.05695 -2.9475,14.31184 -3.451,6.90607 -7.50851,10.77598 -15.5595,14.8401 l -5.77656,2.916 -271.64776,-0.12196 c -149.40628,-0.0671 -273.40173,-0.4209 -275.54545,-0.78626 z"
     id="path9"
     transform="scale(0.03)" />
  <path
     style="fill:#f2f9fe;fill-opacity:1;stroke:#f2f9fe;stroke-width:0.779537;stroke-dasharray:none"
     d="m 127.91231,431.1954 c -6.62189,-0.86201 -15.22351,-5.66344 -19.22702,-10.73255 -5.64449,-7.14686 -6.3678,-9.47447 -6.36948,-20.4969 -0.002,-9.99893 0.087,-10.41334 3.40892,-15.95998 3.8595,-6.44424 11.63549,-12.9237 17.26868,-14.38938 13.4176,-3.49109 540.59643,-3.49071 554.01497,4e-4 5.48965,1.42824 13.38493,8.03252 17.26689,14.44347 3.32777,5.49571 3.41048,5.88227 3.41048,15.93954 0,10.05727 -0.0827,10.44383 -3.41048,15.93954 -3.82332,6.31411 -11.65004,12.91714 -17.26689,14.56726 -4.26076,1.25173 -539.61275,1.92309 -549.09607,0.6886 z"
     id="path10"
     transform="scale(0.03)" />
  <path
     style="fill:#f2f9fe;fill-opacity:1;stroke:#f2f9fe;stroke-width:1.08;stroke-dasharray:none"
     d="m 120.56715,229.36499 c -6.22849,-3.08304 -13.39998,-10.018 -16.22767,-15.69243 -2.11954,-4.25336 -2.50909,-6.34523 -2.49104,-13.37667 0.0348,-13.55139 5.36141,-22.34195 17.35795,-28.64595 l 6.77896,-3.56224 H 399.92667 673.868 l 5.77656,2.916 c 8.05099,4.06412 12.1085,7.93403 15.5595,14.8401 2.6259,5.25489 2.96642,6.90834 2.9475,14.31184 -0.0156,6.11103 -0.5218,9.47273 -1.87517,12.45367 -2.50571,5.51915 -9.18915,12.58035 -15.1359,15.99142 l -4.89201,2.80607 -275.76127,0.008 -275.76127,0.008 z"
     id="path11"
     transform="scale(0.03)" />
</svg>
