<?xml version="1.0" encoding="UTF-8" standalone="no"?>
<svg
   width="24"
   height="24"
   viewBox="0 0 24 24"
   fill="none"
   version="1.1"
   id="svg8"
   sodipodi:docname="Sun_fill_light.svg"
   inkscape:version="1.3.2 (091e20e, 2023-11-25, custom)"
   xmlns:inkscape="http://www.inkscape.org/namespaces/inkscape"
   xmlns:sodipodi="http://sodipodi.sourceforge.net/DTD/sodipodi-0.dtd"
   xmlns="http://www.w3.org/2000/svg"
   xmlns:svg="http://www.w3.org/2000/svg">
  <defs
     id="defs8" />
  <sodipodi:namedview
     id="namedview8"
     pagecolor="#ffffff"
     bordercolor="#000000"
     borderopacity="0.25"
     inkscape:showpageshadow="2"
     inkscape:pageopacity="0.0"
     inkscape:pagecheckerboard="0"
     inkscape:deskcolor="#d1d1d1"
     inkscape:zoom="34.208333"
     inkscape:cx="12"
     inkscape:cy="12"
     inkscape:window-width="1920"
     inkscape:window-height="1017"
     inkscape:window-x="-8"
     inkscape:window-y="-8"
     inkscape:window-maximized="1"
     inkscape:current-layer="svg8" />
  <circle
     cx="12"
     cy="12"
     r="4"
     fill="#223344"
     id="circle1" />
  <path
     d="M12 5V3"
     stroke="#223344"
     stroke-width="2"
     stroke-linecap="round"
     id="path1" />
  <path
     d="M12 21V19"
     stroke="#223344"
     stroke-width="2"
     stroke-linecap="round"
     id="path2" />
  <path
     d="M16.9498 7.04996L18.364 5.63574"
     stroke="#223344"
     stroke-width="2"
     stroke-linecap="round"
     id="path3" />
  <path
     d="M5.63608 18.3644L7.05029 16.9502"
     stroke="#223344"
     stroke-width="2"
     stroke-linecap="round"
     id="path4" />
  <path
     d="M19 12L21 12"
     stroke="#223344"
     stroke-width="2"
     stroke-linecap="round"
     id="path5" />
  <path
     d="M3 12L5 12"
     stroke="#223344"
     stroke-width="2"
     stroke-linecap="round"
     id="path6" />
  <path
     d="M16.9498 16.95L18.364 18.3643"
     stroke="#223344"
     stroke-width="2"
     stroke-linecap="round"
     id="path7" />
  <path
     d="M5.63608 5.63559L7.05029 7.0498"
     stroke="#223344"
     stroke-width="2"
     stroke-linecap="round"
     id="path8" />
  <path
     style="fill:#f2f9fe;stroke:#f2f9fe;stroke-width:0;stroke-dasharray:none"
     d="M 11.338073,15.929701 C 10.538099,15.795324 9.7864034,15.402441 9.1919813,14.808019 8.423481,14.039518 8.0245956,13.080043 8.0245956,12 c 0,-1.080043 0.3988854,-2.0395184 1.1673857,-2.8080187 C 9.9604816,8.423481 10.919957,8.0245956 12,8.0245956 c 1.081864,0 2.039172,0.3979244 2.808019,1.1672095 0.768664,0.7691028 1.167385,1.7282439 1.167385,2.8081949 0,1.080043 -0.398885,2.039518 -1.167385,2.808019 -0.604424,0.604423 -1.350325,0.990234 -2.172137,1.123519 -0.331043,0.05369 -0.972654,0.05278 -1.297809,-0.0018 z"
     id="path9" />
  <path
     style="fill:#f2f9fe;stroke:#f2f9fe;stroke-width:0;stroke-dasharray:none"
     d="M 6.679659,7.9611069 C 6.5355,7.9071236 6.4293675,7.8113352 5.652982,7.0344937 4.8470607,6.228099 4.7825773,6.155939 4.7220118,5.9926918 4.6363216,5.7617244 4.6480551,5.4161469 4.7483143,5.2180268 4.838796,5.0392279 5.0270768,4.8486878 5.2034105,4.7574697 5.4152125,4.6479037 5.751525,4.6326581 5.9926918,4.7216902 6.1562014,4.7820534 6.2267902,4.845144 7.0343066,5.6526605 7.8418231,6.4601769 7.9049136,6.5307658 7.965277,6.6942753 8.0540594,6.9347663 8.0390146,7.2711898 7.929954,7.4841356 7.7011153,7.9309538 7.1552398,8.1391981 6.679659,7.9611069 Z"
     id="path10" />
  <path
     style="fill:#f2f9fe;stroke:#f2f9fe;stroke-width:0;stroke-dasharray:none"
     d="M 11.647053,5.9096574 C 11.441079,5.8249216 11.305003,5.7165471 11.187836,5.5439266 11.013835,5.2875707 11.001326,5.1715829 11.011543,3.9092231 l 0.0092,-1.132122 0.07904,-0.16867 c 0.362132,-0.7727926 1.437159,-0.7768152 1.797481,-0.00673 l 0.08207,0.1753959 0.0092,1.132122 c 0.01022,1.2623598 -0.0023,1.3783476 -0.176293,1.6347035 -0.258792,0.3812758 -0.75143,0.5359162 -1.165111,0.3657308 z"
     id="path11" />
  <path
     style="fill:#f2f9fe;stroke:#f2f9fe;stroke-width:0;stroke-dasharray:none"
     d="M 16.677223,7.9984174 C 16.391318,7.9056839 16.138371,7.66747 16.035828,7.3943801 c -0.0515,-0.1371474 -0.0632,-0.2202703 -0.05537,-0.3931621 0.0171,-0.3773291 0.05371,-0.427271 1.009698,-1.3774 0.77982,-0.7750418 0.854658,-0.8413891 1.017149,-0.9017376 0.240914,-0.089475 0.577041,-0.074404 0.789282,0.035389 0.176333,0.091218 0.364614,0.2817582 0.455096,0.4605571 0.100299,0.1981984 0.112,0.5437356 0.02623,0.774665 -0.06035,0.1624908 -0.126696,0.2373297 -0.901738,1.0171489 -0.961396,0.967322 -1.000711,0.995737 -1.392016,1.0060921 -0.128624,0.0034 -0.266748,-0.00448 -0.306943,-0.017515 z"
     id="path12" />
  <path
     style="fill:#f2f9fe;stroke:#f2f9fe;stroke-width:0;stroke-dasharray:none"
     d="m 18.752741,12.948148 c -0.812279,-0.221056 -0.992136,-1.288262 -0.296668,-1.760312 0.256378,-0.174016 0.372277,-0.18651 1.635407,-0.176293 l 1.132825,0.0092 0.195078,0.09608 c 0.745363,0.367106 0.745362,1.399323 -2e-6,1.766426 l -0.19508,0.09608 -1.155391,0.0063 c -0.949472,0.0052 -1.184045,-0.0015 -1.316169,-0.03745 z"
     id="path13" />
  <path
     style="fill:#f2f9fe;stroke:#f2f9fe;stroke-width:0;stroke-dasharray:none"
     d="m 17.992692,19.275708 c -0.142726,-0.0551 -0.258045,-0.159337 -1.026999,-0.928327 -0.807499,-0.807538 -0.870608,-0.87815 -0.93097,-1.041656 -0.08533,-0.231146 -0.07345,-0.576912 0.02662,-0.774665 0.09048,-0.178799 0.278763,-0.369339 0.455096,-0.460557 0.211802,-0.109566 0.548115,-0.124812 0.789282,-0.03578 0.163509,0.06036 0.234098,0.123454 1.041615,0.93097 0.807516,0.807517 0.870607,0.878106 0.93097,1.041615 0.08533,0.231146 0.07345,0.576912 -0.02662,0.774665 -0.09042,0.178667 -0.278656,0.369245 -0.455096,0.460746 -0.206132,0.106898 -0.573403,0.12197 -0.803898,0.03299 z"
     id="path14" />
  <path
     style="fill:#f2f9fe;stroke:#f2f9fe;stroke-width:0;stroke-dasharray:none"
     d="m 11.832488,21.967064 c -0.321408,-0.06425 -0.593477,-0.278441 -0.733725,-0.577641 l -0.07806,-0.166524 -0.0092,-1.132122 c -0.01022,-1.26236 0.0023,-1.378348 0.176293,-1.634704 0.391616,-0.576965 1.232712,-0.576965 1.624328,0 0.174001,0.256356 0.18651,0.372344 0.176293,1.634704 l -0.0092,1.132122 -0.08207,0.175396 c -0.188537,0.402945 -0.653025,0.651069 -1.064739,0.568769 z"
     id="path15" />
  <path
     style="fill:#f2f9fe;stroke:#f2f9fe;stroke-width:0;stroke-dasharray:none"
     d="M 5.36419,19.31145 C 5.112275,19.229742 4.8691226,19.0207 4.7483143,18.781973 c -0.1004917,-0.198579 -0.1120375,-0.543919 -0.0259,-0.774665 0.06055,-0.1622 0.1283706,-0.238723 0.9014593,-1.017123 0.9495413,-0.956067 0.9993644,-0.992592 1.377344,-1.009724 0.2862526,-0.01297 0.5099345,0.06722 0.7103305,0.254667 0.2072427,0.193851 0.2907244,0.374264 0.3060198,0.66134 0.010174,0.190954 5.084e-4,0.266041 -0.052682,0.409257 -0.060348,0.16249 -0.1266957,0.237329 -0.9017376,1.017149 -0.961396,0.967322 -1.0007107,0.995737 -1.3920163,1.006092 -0.1286237,0.0034 -0.2667479,-0.0045 -0.3069428,-0.01752 z"
     id="path16" />
  <path
     style="fill:#f2f9fe;stroke:#f2f9fe;stroke-width:0.1;stroke-dasharray:none"
     d="M 2.801766,12.963467 C 2.6136268,12.926245 2.4392671,12.82554 2.2888794,12.667239 1.8294197,12.183604 1.9881341,11.389861 2.6017052,11.102773 l 0.1753959,-0.08207 1.132122,-0.0092 c 1.2623598,-0.01022 1.3783476,0.0023 1.6347035,0.176293 0.5769431,0.391601 0.5769431,1.233223 0,1.624175 -0.2492708,0.168913 -0.365199,0.182256 -1.5525044,0.178696 -0.5874868,-0.0018 -1.1228321,-0.01402 -1.1896562,-0.02724 z"
     id="path17" />
  <path
     style="fill:#f2f9fe;stroke:#f2f9fe;stroke-width:0.203;stroke-dasharray:none"
     d="M 6.8967594,7.9925107 C 6.8151903,7.9820764 6.6967981,7.9495814 6.6336656,7.9202996 6.560854,7.8865286 6.2118181,7.5607332 5.6791705,7.0293594 4.7188592,6.0713448 4.6926155,6.0347876 4.6921248,5.6544158 4.6917241,5.3438315 4.7518777,5.1889904 4.9514515,4.9868845 5.173017,4.7625078 5.290095,4.7104898 5.603813,4.6970385 6.0254986,4.6789579 6.0462725,4.6931824 7.0194724,5.6663823 7.966325,6.613235 7.9943521,6.6524914 7.9948423,7.0325514 7.9952103,7.3176986 7.934935,7.4904902 7.7718077,7.6719271 7.5539328,7.9142564 7.2255357,8.0345683 6.8967594,7.9925107 Z"
     id="path18" />
  <path
     style="fill:#f2f9fe;stroke:#f2f9fe;stroke-width:0.206;stroke-dasharray:none"
     d="M 11.851838,5.9466732 C 11.555954,5.9008163 11.24723,5.6595356 11.113108,5.3693253 11.052068,5.2372496 11.049643,5.1915549 11.041153,4.0134948 l -0.0088,-1.2191484 0.07928,-0.1675829 c 0.101571,-0.2147048 0.291564,-0.4039936 0.502359,-0.5004988 0.133089,-0.06093 0.211026,-0.076133 0.39029,-0.076133 0.193296,0 0.250246,0.012925 0.415564,0.094311 0.216652,0.1066574 0.362865,0.2590378 0.474034,0.494029 l 0.07374,0.1558754 -0.0088,1.2191484 c -0.0087,1.2004956 -0.0098,1.2213846 -0.07592,1.3653115 -0.178632,0.3889056 -0.619421,0.631668 -1.031087,0.5678669 z"
     id="path19" />
  <path
     style="fill:#f2f9fe;stroke:#f2f9fe;stroke-width:0.206;stroke-dasharray:none"
     d="M 16.569074,7.9343135 C 16.371815,7.8366718 16.1916,7.6578823 16.094427,7.4634213 16.016511,7.3074969 16.004872,7.253267 16.004872,7.0461375 c 0,-0.3896337 0.02582,-0.426086 0.978456,-1.3813249 0.968356,-0.971002 0.990107,-0.9859005 1.412859,-0.9677741 0.313718,0.013451 0.430796,0.065469 0.652362,0.289846 0.199573,0.2021059 0.259727,0.356947 0.259326,0.6675313 -4.89e-4,0.3796461 -0.02833,0.4186175 -0.972515,1.3613587 -0.960597,0.9591273 -0.989396,0.9793677 -1.393475,0.9793303 -0.194312,-1.78e-5 -0.27741,-0.013568 -0.372811,-0.060791 z"
     id="path20" />
  <path
     style="fill:#f2f9fe;stroke:#f2f9fe;stroke-width:0.206;stroke-dasharray:none"
     d="m 18.738124,12.923786 c -0.267855,-0.08471 -0.464558,-0.250719 -0.592351,-0.499913 -0.103283,-0.201401 -0.124143,-0.53304 -0.0471,-0.748832 0.07276,-0.203801 0.290575,-0.439423 0.502349,-0.543419 l 0.166336,-0.08168 1.218374,-0.0088 1.218374,-0.0088 0.176219,0.08896 c 0.249469,0.125932 0.368048,0.241089 0.477784,0.463994 0.08237,0.167317 0.09561,0.22473 0.09561,0.414679 0,0.190347 -0.01318,0.247249 -0.09646,0.416415 -0.105668,0.214644 -0.242664,0.345323 -0.494527,0.471727 l -0.1525,0.07653 -1.177585,-0.002 c -0.863682,-0.0014 -1.208756,-0.01181 -1.294517,-0.03894 z"
     id="path21" />
  <path
     style="fill:#f2f9fe;stroke:#f2f9fe;stroke-width:0.206;stroke-dasharray:none"
     d="m 18.025569,19.271999 c -0.131464,-0.04378 -0.562125,-0.43776 -1.285504,-1.175998 -0.687874,-0.702005 -0.734449,-0.773527 -0.734907,-1.128552 -4.01e-4,-0.310585 0.05975,-0.465426 0.259326,-0.667532 0.221566,-0.224376 0.338644,-0.276394 0.652362,-0.289846 0.421685,-0.01808 0.442459,-0.0039 1.415659,0.969344 0.946853,0.946853 0.97488,0.986109 0.97537,1.366169 4.01e-4,0.310585 -0.05975,0.465426 -0.259326,0.667531 -0.226939,0.229818 -0.338038,0.277786 -0.661216,0.285481 -0.144702,0.0034 -0.307495,-0.0085 -0.361764,-0.0266 z"
     id="path22" />
  <path
     style="fill:#f2f9fe;stroke:#f2f9fe;stroke-width:0.206;stroke-dasharray:none"
     d="M 11.751523,21.929207 C 11.464416,21.834068 11.247,21.644264 11.114006,21.372655 l -0.08164,-0.166732 0.0088,-1.219283 c 0.0085,-1.178198 0.01092,-1.223889 0.07196,-1.355965 0.229305,-0.496165 0.81139,-0.721089 1.281533,-0.495199 0.210322,0.101053 0.396659,0.286426 0.488248,0.485718 0.06616,0.143953 0.0673,0.164594 0.07596,1.365311 l 0.0088,1.219149 -0.07652,0.161743 c -0.205351,0.434076 -0.73584,0.695603 -1.139594,0.56181 z"
     id="path23" />
  <path
     style="fill:#f2f9fe;stroke:#f2f9fe;stroke-width:0.206;stroke-dasharray:none"
     d="M 5.2472594,19.243876 C 5.1749086,19.208545 5.0417951,19.104743 4.9514515,19.013204 4.7518802,18.810993 4.6917241,18.656125 4.6921248,18.345584 c 4.898e-4,-0.379646 0.02833,-0.418617 0.9725153,-1.361359 0.9553326,-0.953871 0.9912782,-0.979353 1.3814974,-0.979353 0.2070299,0 0.2613895,0.01165 0.4169396,0.08938 0.2159366,0.107905 0.4207876,0.325309 0.4855115,0.515263 0.073763,0.216483 0.061406,0.546111 -0.027643,0.73741 -0.1054003,0.226425 -1.6463541,1.767863 -1.8828358,1.883428 -0.2156457,0.105384 -0.5896399,0.111777 -0.7908499,0.01352 z"
     id="path24" />
  <path
     style="fill:#f2f9fe;stroke:#f2f9fe;stroke-width:0.206;stroke-dasharray:none"
     d="M 11.26883,15.90137 C 10.538274,15.768998 9.7850239,15.362838 9.2101977,14.791334 8.6741962,14.25843 8.347346,13.686857 8.148921,12.935445 8.0493622,12.558427 8.0224925,11.748598 8.0955753,11.327649 8.3423253,9.906394 9.379562,8.7023642 10.7526,8.243361 11.175328,8.1020437 11.503239,8.0516469 12,8.0516469 c 0.483852,0 0.801947,0.047186 1.220721,0.1810793 0.987114,0.3156079 1.858816,1.0734994 2.343506,2.0375348 0.135922,0.270346 0.285428,0.739527 0.33694,1.057388 0.05767,0.355829 0.05767,0.988873 0,1.344702 -0.222977,1.375914 -1.252636,2.59251 -2.594807,3.0659 -0.450467,0.158882 -0.770412,0.20849 -1.325568,0.205532 -0.27581,-0.0015 -0.588948,-0.02012 -0.711962,-0.04241 z"
     id="path25" />
</svg>
